<svg id="visual" viewBox="0 0 900 600" width="900" height="600" xmlns="http://www.w3.org/2000/svg" xmlns:xlink="http://www.w3.org/1999/xlink" version="1.1"><rect x="0" y="0" width="900" height="600" fill="#ffffff"></rect><defs><linearGradient id="grad1_0" x1="33.3%" y1="0%" x2="100%" y2="100%"><stop offset="20%" stop-color="#ffffff" stop-opacity="1"></stop><stop offset="80%" stop-color="#ffffff" stop-opacity="1"></stop></linearGradient></defs><defs><linearGradient id="grad2_0" x1="0%" y1="0%" x2="66.7%" y2="100%"><stop offset="20%" stop-color="#ffffff" stop-opacity="1"></stop><stop offset="80%" stop-color="#ffffff" stop-opacity="1"></stop></linearGradient></defs><g transform="translate(900, 0)"><path d="M0 540.8C-111.7 536.5 -223.3 532.3 -270.4 468.4C-317.5 404.5 -300 281 -334.3 193C-368.6 105 -454.7 52.5 -540.8 0L0 0Z" fill="#e09d39"></path></g><g transform="translate(0, 600)"><path d="M0 -540.8C64.2 -475 128.5 -409.2 215 -372.4C301.5 -335.5 410.4 -327.7 468.4 -270.4C526.4 -213.2 533.6 -106.6 540.8 0L0 0Z" fill="#e09d39"></path></g></svg>